# xmcd CD database file
#
# Track frame offsets:
#	150
#	17172
#	33167
#	49132
#	62060
#	82027
#	98792
#	116427
#	132015
#	149632
#	161812
#	181167
#
# Disc length: 2600 seconds
#
# Revision: 0
# Processed by: cddbd v1.4PL0 Copyright (c) Steve Scherf et al.
# Submitted via: CDex 1.40Beta9
#
DISCID=a00a260c
DTITLE=Brielle Davis - Brielle
DYEAR=1997
DGENRE=Country
TTITLE0=Fly Away
TTITLE1=September's Sweet Child
TTITLE2=Moon River
TTITLE3=The Girl's In Love
TTITLE4=She
TTITLE5=You Are So Beautiful
TTITLE6=Cry
TTITLE7=Father's Day
TTITLE8=Touch of Magic
TTITLE9=Vaudeville Man
TTITLE10=Take Me To the Cross
TTITLE11=The One
EXTD=YEAR: 1997 ID3G: 2
EXTT0=
EXTT1=
EXTT2=
EXTT3=
EXTT4=
EXTT5=
EXTT6=
EXTT7=
EXTT8=
EXTT9=
EXTT10=
EXTT11=
PLAYORDER=
